<svg xmlns="http://www.w3.org/2000/svg" xmlns:xlink="http://www.w3.org/1999/xlink" t="1734257205044" class="icon" viewBox="0 0 2524 1024" version="1.1" p-id="4489" data-darkreader-inline-fill="" width="167.609375" height="68"><path d="M1030.3569 620.831387a49.528608 49.528608 0 0 0-31.109145-16.072519 17.513057 17.513057 0 0 0-5.576015-0.712176 52.264011 52.264011 0 0 0-39.962789 16.663301 64.573327 64.573327 0 0 0-0.137579 84.975553 54.222495 54.222495 0 0 0 40.69115 16.849438h4.799096a56.545161 56.545161 0 0 0 31.157702-15.182299v12.050343l27.135527 0.048557 0.186137-112.216287-27.159806-0.048557v13.668925z m-8.09291 68.077557a27.653473 27.653473 0 0 1-23.178094 10.37511h-0.809291a30.186553 30.186553 0 0 1-23.914548-10.423668 38.036676 38.036676 0 0 1-8.73225-25.646431 36.029634 36.029634 0 0 1 9.606284-25.581687 29.506749 29.506749 0 0 1 23.178094-9.598191h0.809291a29.506749 29.506749 0 0 1 23.153815 9.671027 39.007825 39.007825 0 0 1-0.089022 51.20384z m-308.016146-83.753523a40.270319 40.270319 0 0 0-31.934622 14.356822l0.089022-63.254183-28.737922-0.048558-0.25088 163.379663 28.737922 0.048557 0.089022-68.903034c0-14.445844 8.020074-26.447629 24.00357-26.42335 16.760416 0 21.510954 15.319878 21.486676 26.496187l-0.089022 68.903033h25.557409l0.089022-66.450882c0.048557-34.435331-18.281883-48.079977-39.040197-48.104255z m-133.298316-7.405013a40.367434 40.367434 0 0 1 31.109145 13.644646 35.495502 35.495502 0 0 1 6.377213 11.977506l24.756211-17.5778a77.133523 77.133523 0 0 0-23.914549-21.599976 79.755626 79.755626 0 0 0-37.510637-10.520782 74.70565 74.70565 0 0 0-74.341469 74.390026 73.645479 73.645479 0 0 0 74.098682 74.608535 74.665185 74.665185 0 0 0 37.534916-9.598191 69.938926 69.938926 0 0 0 23.979291-21.559511c-6.377213-4.046455-24.707654-17.650636-24.707653-17.650636a31.732299 31.732299 0 0 1-6.401492 11.249144 38.473693 38.473693 0 0 1-31.181981 14.332543 36.24005 36.24005 0 0 1-30.291761-13.668924 53.655992 53.655992 0 0 1-12.730148-37.672495 50.904402 50.904402 0 0 1 12.843448-36.005356 37.947654 37.947654 0 0 1 30.356505-14.3811z m271.347171 53.307997a24.367751 24.367751 0 0 1 24.78049-26.447629c16.760416 0 21.535233 15.271321 21.510954 26.520465l-0.113301 68.830198 26.358607 0.048557 0.089022-66.410418c0.064743-34.475796-19.066895-48.096163-39.048289-48.14472-27.111248-0.865941-35.916334 14.356822-35.916334 14.356822L848.379731 606.968232l-23.979292-0.048557-0.186137 112.97702 27.985282 0.040465z m335.904313 122.259588a43.701713 43.701713 0 0 0-37.583473 17.553521 34.046871 34.046871 0 0 0-29.442006-17.650636 40.043718 40.043718 0 0 0-34.402959 14.332543l-0.752641-13.604181-25.53313-0.048558-0.186137 113.001299h28.713644l0.1133-68.077557c0-15.271321 7.226968-26.42335 22.425453-26.407164s19.10736 14.421565 19.10736 26.471908l-0.1133 68.077556 26.310049 0.040465 0.113301-67.25208v0.809291c0-19.228754 8.821272-28.001468 21.624255-28.001468 15.182299 0.048557 19.932837 14.421565 19.932837 26.447629l-0.113301 68.101836 25.557409 0.064743 0.089022-66.499439c0.048557-33.698876-16.711859-47.343522-35.867776-47.367801z m-170.032034 6.17489a49.221077 49.221077 0 0 0-27.961004-8.09291h-2.427873a54.222495 54.222495 0 0 0-38.287556 15.182299 54.853742 54.853742 0 0 0-19.269218 43.272788 56.318559 56.318559 0 0 0 16.711859 41.694671 53.882593 53.882593 0 0 0 41.468069 17.674915c0.809291 0 0.809291 0 1.618582-0.809291a56.213351 56.213351 0 0 0 49.536701-28.754108 63.124696 63.124696 0 0 0 8.028167-29.652421 66.119073 66.119073 0 0 0-7.931052-29.668608 53.8745 53.8745 0 0 0-21.486675-20.847335z m-5.737873 79.310515a30.437434 30.437434 0 0 1-22.376896 11.160123 26.94939 26.94939 0 0 1-22.352617-11.224866 41.548999 41.548999 0 0 1-8.732249-28.867409 40.958216 40.958216 0 0 1 8.821271-28.050025 29.134475 29.134475 0 0 1 22.36071-11.200587 29.474377 29.474377 0 0 1 23.137629 11.273423 45.190808 45.190808 0 0 1 8.756528 28.074304 41.710857 41.710857 0 0 1-9.622469 28.826945zM713.948407 771.78034c-26.31005-0.865941-35.139414 14.308264-35.139415 14.308264l-1.578117-12.802983h-23.955013l-0.161858 112.97702 27.936724 0.072837 0.089022-68.077557c0-15.247042 8.044352-27.248827 24.003571-27.224549 16.736137 0 21.535233 15.222763 21.510954 27.273106l-0.089022 68.101836h26.334328l0.089022-66.49944c0.064743-34.451517-18.241419-48.096163-39.048289-48.120441z m-111.876385 69.542373c0 15.198485-8.003888 26.42335-24.756211 26.358607s-23.153815-14.470123-23.137629-26.42335l0.113301-68.1423-27.936725-0.048558-0.113301 65.722521c-0.048557 35.228436 22.287873 48.14472 42.244989 48.945918 27.135526 0.048557 35.932519-15.198485 35.93252-15.198485l1.578117 13.668925 23.938827 0.048557 0.186137-112.993206-27.936724-0.048557z m277.109323-48.468436a26.358607 26.358607 0 0 1 22.376896 10.472225 28.648901 28.648901 0 0 1 5.53555 8.020074l20.806871-15.198485a49.28582 49.28582 0 0 0-19.155917-16.873717 54.610955 54.610955 0 0 0-29.531028-8.044352 58.495552 58.495552 0 0 0-59.15917 59.207728 56.48851 56.48851 0 0 0 17.488778 41.654206 57.208779 57.208779 0 0 0 41.492348 16.93846 58.973033 58.973033 0 0 0 30.356504-8.028166 52.280197 52.280197 0 0 0 18.378999-16.752323l-20.758314-15.271321a31.764671 31.764671 0 0 1-5.576015 8.84555 27.25692 27.25692 0 0 1-22.36071 10.358925 25.897311 25.897311 0 0 1-21.559511-10.423668 43.596505 43.596505 0 0 1 0.089022-54.473376 25.646431 25.646431 0 0 1 21.559511-10.423667z" p-id="4490"/><path d="M1613.548163 890.171517v-27.248827l-8.003888 2.379315-34.338216 9.541541v-15.166113l7.979609-2.379316 0.13758-84.166261h18.387091v14.429658H1613.645278l0.040465-20.798778h-7.971516l-31.934622-0.072836v-13.660832l31.934622 0.089022h15.999682a12.268851 12.268851 0 0 1 11.920856 13.660832l-0.145672 75.304525 6.42577-1.553839 2.355037-0.809291v15.206578l-2.36313 0.809291-6.417677 1.618582v22.441638a11.839927 11.839927 0 0 1-11.945135 10.423668z m-15.983497-37.696774l8.011981-2.427873 7.995795-2.355037v-16.817066h-15.975404z m0.08093-35.220343h15.975403V801.198067h-15.943032z m-285.83348 72.439635h-3.237164l0.072836-39.29917-59.078241-0.097115 0.1133-81.689831 23.137629 0.048558-0.097115 68.89494 35.924427 0.064744 0.113301-55.274574-28.737923-0.072836v-13.612274l28.713644 0.048557 0.016186-19.30159 23.153814 0.048558v19.293497h17.561615l26.350514 0.080929a14.259707 14.259707 0 0 1 14.397286 13.62846l-0.089022 49.601444a18.799829 18.799829 0 0 1-19.204475 18.46802h-39.121125v23.234744c-0.809291 10.399389-6.393399 16.023961-19.851908 16.015868z m19.965208-52.021224h27.159805a8.902201 8.902201 0 0 0 8.7889-8.805086l0.064743-46.445209h-35.940612z m363.20979 51.082447l-19.074988-44.948021-14.453937 36.863204a15.554573 15.554573 0 0 1-13.57181 8.020073h-9.614376l1.618581-5.665037 21.60807-55.282666h-19.99758v-13.604182l22.425452 0.008093v-20.046137h-22.368802v-13.677018h17.602079l-14.324451-24.00357 10.383204-6.474328a215.2714 215.2714 0 0 1 18.338533 21.697091l-11.20868 8.845551h13.636553l19.196382-30.445527 15.141834 10.520783-16.023961 20.005673h17.585893v13.604181l-26.350514-0.048557v20.062323l26.342421 0.048557v13.579903h-23.922641l26.957482 60.963889z m143.68152-2.274108l-19.94093-0.048558h-19.99758l-43.847385-0.05665a16.695673 16.695673 0 0 1-15.959218-16.776602l0.089022-61.708437-10.342738-0.080929v-13.620367l30.340318 0.064743-0.1133 69.696139a8.902201 8.902201 0 0 0 8.756528 8.84555l31.109145 0.048558h20.005673l19.908558 0.048557 31.934622 0.048558v13.563717z m-308.186097-0.44511l-50.265062-0.097115-68.619782-0.13758 0.186137-133.743426 20.758313 0.064743-0.202322 120.17971 47.89384 0.05665 39.938509 0.129487a8.230489 8.230489 0 0 0 8.73225-8.09291l0.169951-98.563548-48.670759-0.064743-40.763987-0.080929v-13.596089l40.763987 0.064744 55.088437 0.089022a14.316357 14.316357 0 0 1 14.364914 14.470122l-0.169951 100.149759a18.961688 18.961688 0 0 1-18.961687 19.16401z m321.798371-19.520099h-12.778704l-0.809291-1.618581-3.196699-12.009879H1844.317485c2.427873 0 5.592201-1.618582 5.592201-3.997897v-5.608386H1828.358267v11.224865a12.139365 12.139365 0 0 1-9.573912 11.953228h-8.869829v-23.226651h-21.535233v11.216773a11.896577 11.896577 0 0 1-12.770612 11.928949h-5.5922l0.1133-80.929098 27.135527 0.072837-6.377213-6.425771 6.401492-9.630562a2.67066 2.67066 0 0 0 1.578117 0.849755c3.237164 1.553839 10.367017 5.600294 17.561614 9.606284l2.427873-1.561932 19.989487-12.042249-19.924744-0.048558h-49.520515V752.640608h49.544794l19.94093 0.048558h26.326235v16.007775l-26.374793 15.319878-2.379315 1.578118h21.502861a10.909242 10.909242 0 0 1 11.184401 11.200587l-0.089022 53.664085a16.226284 16.226284 0 0 1-16.736137 16.007775z m-23.922641-36.053913H1849.917779v-9.630562h-21.567605z m-39.914231-0.040464H1809.979269v-9.582005H1788.444036z m39.987067-22.433546H1849.982522v-8.7889H1828.42301z m-39.954695-0.064743h21.535233v-8.772714h-21.543326z m-308.258933 51.600392l-40.723522-0.05665v-13.668925l28.802666 0.064744v-22.376896l-27.944818-0.040464v-13.693204l27.961004 0.048558V793.024228l-27.944818-0.048558v-13.677017l39.93851 0.064743 40.699243 0.113301V793.105157h-31.076773v16.800881l31.133423 0.064743v13.62846l-31.133423-0.089022v22.384988h15.182298l-11.176308-12.819169 8.020073-7.995795a96.613157 96.613157 0 0 1 15.918754 12.001786l-6.377213 8.805085h10.334646v13.677018z m250.070912-95.739122l10.407482-7.979609a114.676531 114.676531 0 0 1 21.502861 21.648534l-14.397287 10.37511z" p-id="4491"/><path d="M1923.360935 321.838836a96.742643 96.742643 0 0 0-78.962521-29.741444 100.538218 100.538218 0 0 0-64.743278 29.514842l-24.78049 24.829047-36.693252-37.761517-2.427873 1.66714-32.760099 33.585575-11.90467 11.176309 11.953227 12.85154 24.707654 25.67071-24.78049 24.829047-12.001785 11.953228 11.953228 12.066528 32.646798 33.715063 2.427873 1.578117 36.806553-37.583473s13.531345 13.644646 24.731932 24.829047a100.352081 100.352081 0 0 0 64.605699 29.790001 97.042081 97.042081 0 0 0 79.051543-29.539121 101.76834 101.76834 0 0 0 0.210415-143.446825z m-47.2545 96.079024a34.564818 34.564818 0 0 1-31.910343 9.582005 30.162275 30.162275 0 0 1-17.602079-9.671027 1407.437937 1407.437937 0 0 0-24.667189-24.044035s13.579903-14.405379 24.756211-24.804768a29.6767 29.6767 0 0 1 17.602079-9.533448 30.971566 30.971566 0 0 1 31.910343 9.62247 32.323082 32.323082 0 0 1 10.334646 24.869512 31.683742 31.683742 0 0 1-10.415575 23.971198z m-595.638159 75.98433a97.114917 97.114917 0 0 0 64.743278-29.579585q12.406431-12.365966 24.78049-24.756211l37.470172 37.696774 2.427873-2.379316 32.808656-32.784377 11.953228-12.001786-11.912763-11.249144-25.533131-25.67071 25.622153-26.42335 11.953227-11.977507-11.912763-11.249144-32.687262-32.8734-2.379316-2.492616-37.607751 37.648216-24.691468-24.89379a101.298952 101.298952 0 0 0-143.673427-0.202323 101.598389 101.598389 0 0 0-0.226602 143.373989 97.657142 97.657142 0 0 0 78.841127 29.806187z m-31.748485-125.869026a32.573962 32.573962 0 0 1 31.934622-9.533447 27.799145 27.799145 0 0 1 17.553521 9.598191c11.135844 10.447947 24.715746 24.89379 24.715747 24.89379s-13.620367 12.802983-24.78049 23.955013a27.426871 27.426871 0 0 1-17.5778 9.598191 35.301272 35.301272 0 0 1-42.244989-33.715062 35.293179 35.293179 0 0 1 10.37511-24.804768z" fill="#C5382A" p-id="4492" data-darkreader-inline-fill="" style="--darkreader-inline-fill: #9e2d22;"/><path d="M1730.701125 514.579575c-1.618582-1.553839-7.20269-7.154132-15.182299-15.222764q-16.598558-16.574279-32.662984-33.674597c-34.289659-33.715062-72.561029-72.237313-72.561029-72.237313s38.40895-39.185869 72.836188-72.763352q16.088705-17.092225 32.760099-33.62604c8.003888-8.020074 13.62846-13.604181 15.222763-15.198484a101.760247 101.760247 0 0 0 0.226602-144.199466 74.058217 74.058217 0 0 0-15.182299-12.843448 91.279929 91.279929 0 0 0-32.671077-14.470123 98.676849 98.676849 0 0 0-95.075504 27.111248c-15.983497 15.198485-24.829047 24.804768-24.829047 24.804768l-24.691467-24.845233a100.489661 100.489661 0 0 0-95.739123-27.386406 90.44636 90.44636 0 0 0-32.784377 14.3811 111.19658 111.19658 0 0 0-15.182299 12.778705 101.752154 101.752154 0 0 0-0.226602 144.199466c1.578117 1.618582 7.154132 7.20269 15.133742 15.247042 8.805086 8.821272 20.709756 20.871614 32.711541 32.897678l73.240833 73.81543s-39.137312 38.384671-73.475527 72.836188c-12.04225 11.953228-24.00357 23.955013-32.824842 32.784378l-15.182299 15.15802a101.792619 101.792619 0 0 0-0.226602 144.248023 116.974918 116.974918 0 0 0 15.15802 12.843448 90.527289 90.527289 0 0 0 32.73582 14.421565 100.562497 100.562497 0 0 0 95.803866-27.06269c15.198485-15.182299 24.756211-24.78049 24.756211-24.78049s8.805086 9.62247 24.756211 24.829047a98.676849 98.676849 0 0 0 94.986482 27.410686 90.551567 90.551567 0 0 0 32.711541-14.356822 74.754208 74.754208 0 0 0 15.222764-12.802983 101.849269 101.849269 0 0 0 0.226601-144.248024z m-287.743407-289.637148l-0.865941-0.809291a35.357923 35.357923 0 0 1 0.072836-49.625723c0-0.809291 0.809291-0.809291 0.809291-1.618582a35.608803 35.608803 0 0 1 48.670759 1.691418l24.691468 24.845233-37.510637 36.790368 47.00362 47.319244 37.559194-36.830833 37.494451 36.984598 47.181664-47.205943-37.494451-36.919854s11.200587-12.001785 24.804769-24.78049a34.718583 34.718583 0 0 1 47.934304-1.52956l1.553839 1.618582a35.366016 35.366016 0 0 1-0.064743 49.625723 1.72379 1.72379 0 0 0-1.578118 1.618582c-19.155917 19.155917-120.721935 119.945016-120.721935 119.945015s-100.449196-101.841176-119.54037-121.118487z m241.265826 386.493092c-0.809291 0.809291-1.578117 0.809291-1.578117 1.618582a34.799512 34.799512 0 0 1-47.934305-1.66714c-13.555624-12.827262-24.731932-24.89379-24.731932-24.89379l37.607752-37.583473-47.044085-47.343522-37.607751 37.63203-37.445894-37.76961-47.141199 47.230222 37.397336 37.672495s-11.928949 12.050343-24.756211 24.804768a35.608803 35.608803 0 0 1-48.67076 1.505281c0-0.809291-0.865941-0.809291-0.865941-1.618582a35.366016 35.366016 0 0 1 0.089022-49.650001l0.809291-0.728362 119.920737-120.81905s101.250394 101.161372 120.382033 120.357754a1.683325 1.683325 0 0 0 1.578117 1.618582 35.40648 35.40648 0 0 1-0.048557 49.67428z" fill="#C5382A" p-id="4493" data-darkreader-inline-fill="" style="--darkreader-inline-fill: #9e2d22;"/><path d="M774.847553 606.045641h26.334328v113.770125h-26.334328z m13.668924-41.629928a14.850489 14.850489 0 0 0-15.959218 15.15802 15.166113 15.166113 0 0 0 15.133741 15.295599h0.809291a14.696724 14.696724 0 0 0 15.206578-15.247042 14.227335 14.227335 0 0 0-15.190392-15.198484z m-0.25088 166.649198a15.473643 15.473643 0 0 0-15.959218 15.975404 14.567238 14.567238 0 0 0 15.133741 14.494401h0.809291a14.089756 14.089756 0 0 0 15.198485-14.445844 14.882861 14.882861 0 0 0-15.182299-16.015868z m-13.709389 42.406847h26.334328v112.993206h-26.334328z" fill="#C5382A" p-id="4494" data-darkreader-inline-fill="" style="--darkreader-inline-fill: #9e2d22;"/></svg>