<svg xmlns="http://www.w3.org/2000/svg" xmlns:xlink="http://www.w3.org/1999/xlink" height="1024" node-id="1" sillyvg="true" template-height="1024" template-width="1440" version="1.1" viewBox="0 0 1440 1024" width="1440"><defs node-id="87"/><path d="M 0.00 0.00 L 1440.00 0.00 L 1440.00 1024.00 L 0.00 1024.00 Z" fill="#211d41" fill-rule="evenodd" node-id="90" stroke="none" target-height="1024" target-width="1440" target-x="0" target-y="0"/><g node-id="92"><path d="M 738.00 755.00 L 638.00 755.00 L 637.70 747.50 L 637.00 740.20 L 635.80 733.20 L 634.10 726.30 L 632.00 719.50 L 629.50 712.90 L 626.60 706.60 L 623.30 700.50 L 619.50 694.60 L 615.50 689.00 L 611.10 683.70 L 606.40 678.60 L 601.30 673.90 L 596.00 669.50 L 590.40 665.50 L 584.50 661.70 L 578.40 658.40 L 572.10 655.50 L 565.60 653.00 L 558.80 650.90 L 551.90 649.20 L 544.80 648.00 L 537.50 647.30 L 530.10 647.00 L 522.60 647.30 L 515.30 648.00 L 508.30 649.20 L 501.40 650.90 L 494.60 653.00 L 488.00 655.50 L 481.70 658.40 L 475.60 661.70 L 469.70 665.50 L 464.10 669.50 L 458.80 673.90 L 453.80 678.60 L 449.00 683.70 L 444.60 689.00 L 440.60 694.60 L 436.90 700.50 L 433.60 706.60 L 430.60 712.90 L 428.10 719.50 L 426.00 726.30 L 424.30 733.20 L 423.10 740.20 L 422.40 747.50 L 422.20 755.00 L 322.20 755.00 L 322.40 745.10 L 323.10 735.40 L 324.20 725.80 L 325.70 716.50 L 327.60 707.30 L 330.00 698.10 L 332.80 689.20 L 335.90 680.40 L 339.40 671.90 L 343.30 663.50 L 348.70 653.30 L 354.50 643.50 L 360.90 634.00 L 367.80 624.90 L 375.20 616.20 L 383.00 607.90 L 391.30 600.10 L 400.00 592.70 L 409.10 585.80 L 418.60 579.40 L 428.40 573.50 L 438.60 568.10 L 447.00 564.30 L 455.50 560.80 L 464.30 557.60 L 473.20 554.90 L 482.40 552.50 L 491.60 550.50 L 501.00 549.00 L 510.50 547.90 L 520.20 547.20 L 530.10 547.00 L 540.00 547.20 L 549.70 547.90 L 559.20 549.00 L 568.50 550.50 L 577.70 552.50 L 586.90 554.90 L 595.90 557.60 L 604.60 560.80 L 613.20 564.30 L 621.50 568.10 L 631.70 573.50 L 641.60 579.40 L 651.00 585.80 L 660.10 592.70 L 668.80 600.10 L 677.10 607.90 L 684.90 616.20 L 692.30 624.90 L 699.20 634.00 L 705.60 643.50 L 711.50 653.30 L 716.90 663.50 L 720.70 671.90 L 724.20 680.40 L 727.40 689.20 L 730.10 698.10 L 732.50 707.30 L 734.50 716.50 L 736.00 725.80 L 737.10 735.40 L 737.80 745.10 L 738.00 755.00 Z" fill="#0b3b85" fill-rule="nonzero" group-id="1" id="Shape" node-id="9" stroke="none" target-height="208" target-width="415.8" target-x="322.2" target-y="547"/><path d="M 772.80 674.60 L 772.60 675.80 L 771.50 677.70 L 769.60 678.80 L 768.40 679.00 L 766.20 678.40 L 764.60 676.80 L 764.20 675.80 L 764.00 674.60 L 764.60 672.40 L 766.20 670.80 L 768.40 670.20 L 769.60 670.30 L 771.50 671.50 L 772.60 673.40 L 772.80 674.60 Z M 772.80 656.90 L 772.60 658.10 L 771.50 660.10 L 769.60 661.20 L 768.40 661.40 L 766.20 660.80 L 764.60 659.20 L 764.20 658.10 L 764.00 656.90 L 764.60 654.70 L 766.20 653.10 L 768.40 652.50 L 769.60 652.70 L 771.50 653.80 L 772.60 655.70 L 772.80 656.90 Z M 772.80 639.30 L 772.60 640.50 L 771.50 642.40 L 769.60 643.60 L 768.40 643.70 L 766.20 643.10 L 764.60 641.50 L 764.20 640.50 L 764.00 639.30 L 764.60 637.10 L 766.20 635.50 L 768.40 634.90 L 769.60 635.10 L 771.50 636.20 L 772.60 638.10 L 772.80 639.30 Z M 772.80 621.70 L 772.60 622.90 L 771.50 624.80 L 769.60 625.90 L 768.40 626.10 L 766.20 625.50 L 764.60 623.90 L 764.20 622.90 L 764.00 621.70 L 764.60 619.50 L 766.20 617.90 L 768.40 617.30 L 769.60 617.40 L 771.50 618.60 L 772.60 620.50 L 772.80 621.70 Z M 772.80 604.00 L 772.60 605.20 L 771.50 607.20 L 769.60 608.30 L 768.40 608.50 L 766.20 607.90 L 764.60 606.30 L 764.20 605.20 L 764.00 604.00 L 764.60 601.80 L 766.20 600.20 L 768.40 599.60 L 769.60 599.80 L 771.50 600.90 L 772.60 602.80 L 772.80 604.00 Z M 772.80 586.40 L 772.60 587.60 L 771.50 589.50 L 769.60 590.60 L 768.40 590.80 L 766.20 590.20 L 764.60 588.60 L 764.20 587.60 L 764.00 586.40 L 764.60 584.20 L 766.20 582.60 L 768.40 582.00 L 769.60 582.20 L 771.50 583.30 L 772.60 585.20 L 772.80 586.40 Z M 790.50 674.60 L 790.30 675.80 L 789.20 677.70 L 787.20 678.80 L 786.00 679.00 L 784.80 678.80 L 782.90 677.70 L 781.80 675.80 L 781.60 674.60 L 781.80 673.40 L 782.90 671.50 L 784.80 670.30 L 786.00 670.20 L 787.20 670.30 L 789.20 671.50 L 790.30 673.40 L 790.50 674.60 Z M 790.50 656.90 L 790.30 658.10 L 789.20 660.10 L 787.20 661.20 L 786.00 661.40 L 784.80 661.20 L 782.90 660.10 L 781.80 658.10 L 781.60 656.90 L 781.80 655.70 L 782.90 653.80 L 784.80 652.70 L 786.00 652.50 L 787.20 652.70 L 789.20 653.80 L 790.30 655.70 L 790.50 656.90 Z M 790.50 639.30 L 790.30 640.50 L 789.20 642.40 L 787.20 643.60 L 786.00 643.70 L 783.80 643.10 L 782.20 641.50 L 781.80 640.50 L 781.60 639.30 L 782.20 637.10 L 783.80 635.50 L 786.00 634.90 L 787.20 635.10 L 789.20 636.20 L 790.30 638.10 L 790.50 639.30 Z M 790.50 621.70 L 790.30 622.90 L 789.20 624.80 L 787.20 625.90 L 786.00 626.10 L 784.80 625.90 L 782.90 624.80 L 781.80 622.90 L 781.60 621.70 L 781.80 620.50 L 782.90 618.60 L 784.80 617.40 L 786.00 617.30 L 787.20 617.40 L 789.20 618.60 L 790.30 620.50 L 790.50 621.70 Z M 790.50 604.00 L 790.30 605.20 L 789.20 607.20 L 787.20 608.30 L 786.00 608.50 L 783.80 607.90 L 782.20 606.30 L 781.80 605.20 L 781.60 604.00 L 782.20 601.80 L 783.80 600.20 L 786.00 599.60 L 787.20 599.80 L 789.20 600.90 L 790.30 602.80 L 790.50 604.00 Z M 790.50 586.40 L 790.30 587.60 L 789.20 589.50 L 787.20 590.60 L 786.00 590.80 L 784.80 590.60 L 782.90 589.50 L 781.80 587.60 L 781.60 586.40 L 781.80 585.20 L 782.90 583.30 L 784.80 582.20 L 786.00 582.00 L 787.20 582.20 L 789.20 583.30 L 790.30 585.20 L 790.50 586.40 Z M 808.10 674.60 L 807.90 675.80 L 806.80 677.70 L 804.90 678.80 L 803.70 679.00 L 801.50 678.40 L 799.90 676.80 L 799.40 675.80 L 799.30 674.60 L 799.90 672.40 L 801.50 670.80 L 803.70 670.20 L 804.90 670.30 L 806.80 671.50 L 807.90 673.40 L 808.10 674.60 Z M 808.10 656.90 L 807.90 658.10 L 806.80 660.10 L 804.90 661.20 L 803.70 661.40 L 801.50 660.80 L 799.90 659.20 L 799.40 658.10 L 799.30 656.90 L 799.90 654.70 L 801.50 653.10 L 803.70 652.50 L 804.90 652.70 L 806.80 653.80 L 807.90 655.70 L 808.10 656.90 Z M 808.10 639.30 L 807.90 640.50 L 806.80 642.40 L 804.90 643.60 L 803.70 643.70 L 801.50 643.10 L 799.90 641.50 L 799.40 640.50 L 799.30 639.30 L 799.90 637.10 L 801.50 635.50 L 803.70 634.90 L 804.90 635.10 L 806.80 636.20 L 807.90 638.10 L 808.10 639.30 Z M 808.10 621.70 L 807.90 622.90 L 806.80 624.80 L 804.90 625.90 L 803.70 626.10 L 802.50 625.90 L 800.60 624.80 L 799.40 622.90 L 799.30 621.70 L 799.40 620.50 L 800.60 618.60 L 802.50 617.40 L 803.70 617.30 L 804.90 617.40 L 806.80 618.60 L 807.90 620.50 L 808.10 621.70 Z M 808.10 604.00 L 807.90 605.20 L 806.80 607.20 L 804.90 608.30 L 803.70 608.50 L 801.50 607.90 L 799.90 606.30 L 799.40 605.20 L 799.30 604.00 L 799.90 601.80 L 801.50 600.20 L 803.70 599.60 L 804.90 599.80 L 806.80 600.90 L 807.90 602.80 L 808.10 604.00 Z M 808.10 586.40 L 807.90 587.60 L 806.80 589.50 L 804.90 590.60 L 803.70 590.80 L 802.50 590.60 L 800.60 589.50 L 799.40 587.60 L 799.30 586.40 L 799.40 585.20 L 800.60 583.30 L 802.50 582.20 L 803.70 582.00 L 804.90 582.20 L 806.80 583.30 L 807.90 585.20 L 808.10 586.40 Z M 825.70 674.60 L 825.60 675.80 L 824.40 677.70 L 822.50 678.80 L 821.30 679.00 L 819.10 678.40 L 817.50 676.80 L 817.10 675.80 L 816.90 674.60 L 817.50 672.40 L 819.10 670.80 L 821.30 670.20 L 822.50 670.30 L 824.40 671.50 L 825.60 673.40 L 825.70 674.60 Z M 825.70 656.90 L 825.60 658.10 L 824.40 660.10 L 822.50 661.20 L 821.30 661.40 L 819.10 660.80 L 817.50 659.20 L 817.10 658.10 L 816.90 656.90 L 817.50 654.70 L 819.10 653.10 L 821.30 652.50 L 822.50 652.70 L 824.40 653.80 L 825.60 655.70 L 825.70 656.90 Z M 825.70 639.30 L 825.60 640.50 L 824.40 642.40 L 822.50 643.60 L 821.30 643.70 L 819.10 643.10 L 817.50 641.50 L 817.10 640.50 L 816.90 639.30 L 817.50 637.10 L 819.10 635.50 L 821.30 634.90 L 822.50 635.10 L 824.40 636.20 L 825.60 638.10 L 825.70 639.30 Z M 825.70 621.70 L 825.60 622.90 L 824.40 624.80 L 822.50 625.90 L 821.30 626.10 L 819.10 625.50 L 817.50 623.90 L 817.10 622.90 L 816.90 621.70 L 817.50 619.50 L 819.10 617.90 L 821.30 617.30 L 822.50 617.40 L 824.40 618.60 L 825.60 620.50 L 825.70 621.70 Z M 825.70 604.00 L 825.60 605.20 L 824.40 607.20 L 822.50 608.30 L 821.30 608.50 L 819.10 607.90 L 817.50 606.30 L 817.10 605.20 L 816.90 604.00 L 817.50 601.80 L 819.10 600.20 L 821.30 599.60 L 822.50 599.80 L 824.40 600.90 L 825.60 602.80 L 825.70 604.00 Z M 825.70 586.40 L 825.60 587.60 L 824.40 589.50 L 822.50 590.60 L 821.30 590.80 L 819.10 590.20 L 817.50 588.60 L 817.10 587.60 L 816.90 586.40 L 817.50 584.20 L 819.10 582.60 L 821.30 582.00 L 822.50 582.20 L 824.40 583.30 L 825.60 585.20 L 825.70 586.40 Z M 843.40 674.60 L 843.20 675.80 L 842.10 677.70 L 840.10 678.80 L 838.90 679.00 L 836.70 678.40 L 835.10 676.80 L 834.70 675.80 L 834.50 674.60 L 835.10 672.40 L 836.70 670.80 L 838.90 670.20 L 840.10 670.30 L 842.10 671.50 L 843.20 673.40 L 843.40 674.60 Z M 843.40 656.90 L 843.20 658.10 L 842.10 660.10 L 840.10 661.20 L 838.90 661.40 L 836.70 660.80 L 835.10 659.20 L 834.70 658.10 L 834.50 656.90 L 835.10 654.70 L 836.70 653.10 L 838.90 652.50 L 840.10 652.70 L 842.10 653.80 L 843.20 655.70 L 843.40 656.90 Z M 843.40 639.30 L 843.20 640.50 L 842.10 642.40 L 840.10 643.60 L 838.90 643.70 L 836.70 643.10 L 835.10 641.50 L 834.70 640.50 L 834.50 639.30 L 835.10 637.10 L 836.70 635.50 L 838.90 634.90 L 840.10 635.10 L 842.10 636.20 L 843.20 638.10 L 843.40 639.30 Z M 843.40 621.70 L 843.20 622.90 L 842.10 624.80 L 840.10 625.90 L 838.90 626.10 L 836.70 625.50 L 835.10 623.90 L 834.70 622.90 L 834.50 621.70 L 835.10 619.50 L 836.70 617.90 L 838.90 617.30 L 840.10 617.40 L 842.10 618.60 L 843.20 620.50 L 843.40 621.70 Z M 843.40 604.00 L 843.20 605.20 L 842.10 607.20 L 840.10 608.30 L 838.90 608.50 L 837.80 608.30 L 835.80 607.20 L 834.70 605.20 L 834.50 604.00 L 834.70 602.80 L 835.80 600.90 L 837.80 599.80 L 838.90 599.60 L 840.10 599.80 L 842.10 600.90 L 843.20 602.80 L 843.40 604.00 Z M 843.40 586.40 L 843.20 587.60 L 842.10 589.50 L 840.10 590.60 L 838.90 590.80 L 836.70 590.20 L 835.10 588.60 L 834.70 587.60 L 834.50 586.40 L 835.10 584.20 L 836.70 582.60 L 838.90 582.00 L 840.10 582.20 L 842.10 583.30 L 843.20 585.20 L 843.40 586.40 Z M 861.00 674.60 L 860.80 675.80 L 859.70 677.70 L 857.80 678.80 L 856.60 679.00 L 855.40 678.80 L 853.50 677.70 L 852.30 675.80 L 852.20 674.60 L 852.30 673.40 L 853.50 671.50 L 855.40 670.30 L 856.60 670.20 L 857.80 670.30 L 859.70 671.50 L 860.80 673.40 L 861.00 674.60 Z M 861.00 656.90 L 860.80 658.10 L 859.70 660.10 L 857.80 661.20 L 856.60 661.40 L 854.40 660.80 L 852.80 659.20 L 852.30 658.10 L 852.20 656.90 L 852.80 654.70 L 854.40 653.10 L 856.60 652.50 L 857.80 652.70 L 859.70 653.80 L 860.80 655.70 L 861.00 656.90 Z M 861.00 639.30 L 860.80 640.50 L 859.70 642.40 L 857.80 643.60 L 856.60 643.70 L 854.40 643.10 L 852.80 641.50 L 852.30 640.50 L 852.20 639.30 L 852.80 637.10 L 854.40 635.50 L 856.60 634.90 L 857.80 635.10 L 859.70 636.20 L 860.80 638.10 L 861.00 639.30 Z M 861.00 621.70 L 860.80 622.90 L 859.70 624.80 L 857.80 625.90 L 856.60 626.10 L 854.40 625.50 L 852.80 623.90 L 852.30 622.90 L 852.20 621.70 L 852.80 619.50 L 854.40 617.90 L 856.60 617.30 L 857.80 617.40 L 859.70 618.60 L 860.80 620.50 L 861.00 621.70 Z M 861.00 604.00 L 860.80 605.20 L 859.70 607.20 L 857.80 608.30 L 856.60 608.50 L 854.40 607.90 L 852.80 606.30 L 852.30 605.20 L 852.20 604.00 L 852.80 601.80 L 854.40 600.20 L 856.60 599.60 L 857.80 599.80 L 859.70 600.90 L 860.80 602.80 L 861.00 604.00 Z M 861.00 586.40 L 860.80 587.60 L 859.70 589.50 L 857.80 590.60 L 856.60 590.80 L 854.40 590.20 L 852.80 588.60 L 852.30 587.60 L 852.20 586.40 L 852.80 584.20 L 854.40 582.60 L 856.60 582.00 L 857.80 582.20 L 859.70 583.30 L 860.80 585.20 L 861.00 586.40 Z" fill="#cdcbdf" fill-rule="evenodd" group-id="1" id="Shape" node-id="10" stroke="none" target-height="97" target-width="97" target-x="764" target-y="582"/></g><g node-id="93"><path d="M 758.00 503.00 L 758.00 538.00 L 638.00 453.00 L 758.00 368.00 L 758.00 403.00 L 1120.00 403.00 L 1120.00 503.00 Z" fill="#0f55be" fill-rule="evenodd" group-id="2" id="Shape" node-id="12" stroke="none" target-height="170" target-width="482" target-x="638" target-y="368"/><path d="M 644.00 361.00 L 282.00 361.00 L 282.00 261.00 L 644.00 261.00 L 644.00 226.00 L 764.00 311.00 L 644.00 396.00 Z" fill="#0b3b85" fill-rule="evenodd" group-id="2" id="Shape" node-id="13" stroke="none" target-height="170" target-width="482" target-x="282" target-y="226"/></g><g node-id="94"><path d="M 1002.00 175.00 L 1281.00 175.00 L 1281.00 641.40 L 1391.00 734.30 L 1391.00 955.00 L 1002.00 955.00 Z" fill="#53a5ff" fill-rule="evenodd" group-id="3" id="Shape" node-id="15" stroke="none" target-height="780" target-width="389" target-x="1002" target-y="175"/><path d="M 1303.00 784.00 L 1371.00 784.00 L 1371.00 895.00 L 1303.00 895.00 Z" fill="#0b3b85" fill-rule="evenodd" group-id="3" id="Shape" node-id="16" stroke="none" target-height="111" target-width="68" target-x="1303" target-y="784"/><path d="M 890.00 175.00 L 1169.00 175.00 L 1169.00 641.40 L 1283.20 734.30 L 1283.20 955.00 L 890.00 955.00 Z" fill="#0b3b85" fill-rule="evenodd" group-id="3" id="Shape" node-id="17" stroke="none" target-height="780" target-width="393.19995" target-x="890" target-y="175"/><path d="M 890.00 175.00 L 1165.00 175.00 L 1165.00 197.00 L 890.00 197.00 L 890.00 175.00 Z M 890.00 236.00 L 1165.00 236.00 L 1165.00 258.00 L 890.00 258.00 L 890.00 236.00 Z M 890.00 297.00 L 1164.80 297.00 L 1164.80 319.00 L 890.00 319.00 L 890.00 297.00 Z M 890.00 358.00 L 1164.80 358.00 L 1164.80 380.00 L 890.00 380.00 L 890.00 358.00 Z M 890.00 419.00 L 1164.80 419.00 L 1164.80 441.00 L 890.00 441.00 L 890.00 419.00 Z M 890.00 480.00 L 1164.80 480.00 L 1164.80 502.00 L 890.00 502.00 L 890.00 480.00 Z M 890.00 541.00 L 1164.80 541.00 L 1164.80 563.00 L 890.00 563.00 L 890.00 541.00 Z M 890.00 602.00 L 1164.80 602.00 L 1164.80 624.00 L 890.00 624.00 L 890.00 602.00 Z M 890.00 663.00 L 1283.00 663.00 L 1283.00 685.00 L 890.00 685.00 L 890.00 663.00 Z M 890.00 724.00 L 1283.00 724.00 L 1283.00 746.00 L 890.00 746.00 L 890.00 724.00 Z" fill="#0f55be" fill-rule="evenodd" group-id="3" id="Combined-Shape" node-id="18" stroke="none" target-height="571" target-width="393" target-x="890" target-y="175"/><path d="M 930.00 784.00 L 1243.20 784.00 L 1243.20 955.00 L 930.00 955.00 Z" fill="#0f55be" fill-rule="evenodd" group-id="3" id="Shape" node-id="19" stroke="none" target-height="171" target-width="313.19995" target-x="930" target-y="784"/><path d="M 1171.00 642.60 L 1281.10 641.00 L 1391.10 733.90 L 1282.70 733.40 Z" fill="#3b97fc" fill-rule="evenodd" group-id="3" id="Shape" node-id="20" stroke="none" target-height="92.900024" target-width="220.09998" target-x="1171" target-y="641"/><path d="M 1002.00 97.00 L 1169.00 97.00 L 1169.00 175.00 L 1002.00 175.00 Z" fill="#53a5ff" fill-rule="evenodd" group-id="3" id="Shape" node-id="21" stroke="none" target-height="78" target-width="167" target-x="1002" target-y="97"/><path d="M 1002.00 97.00 L 1136.00 97.00 L 1136.00 175.00 L 1002.00 175.00 Z" fill="#3b97fc" fill-rule="evenodd" group-id="3" id="Shape" node-id="22" stroke="none" target-height="78" target-width="134" target-x="1002" target-y="97"/></g><g node-id="95"><path d="M 513.00 821.80 L 638.40 821.80 L 638.40 955.00 L 513.00 955.00 Z" fill="#ee342c" fill-rule="evenodd" group-id="4" id="Shape" node-id="24" stroke="none" target-height="133.20001" target-width="125.400024" target-x="513" target-y="821.8"/><path d="M 638.40 754.40 L 763.90 754.40 L 763.90 955.00 L 638.40 955.00 Z" fill="#fb6868" fill-rule="evenodd" group-id="4" id="Shape" node-id="25" stroke="none" target-height="200.59998" target-width="125.5" target-x="638.4" target-y="754.4"/><path d="M 763.90 687.10 L 889.30 687.10 L 889.30 955.00 L 763.90 955.00 Z" fill="#fda0a2" fill-rule="evenodd" group-id="4" id="Shape" node-id="26" stroke="none" target-height="267.90002" target-width="125.39996" target-x="763.9" target-y="687.1"/></g><g node-id="96"><path d="M 970.10 525.00 L 981.00 547.20 L 982.50 551.10 L 983.50 554.90 L 984.00 558.90 L 983.90 562.90 L 983.30 566.80 L 982.20 570.60 L 980.60 574.20 L 978.50 577.70 L 975.90 580.90 L 948.40 610.20 L 933.90 594.80 L 958.00 566.80 L 947.10 547.00 L 970.10 525.00 Z" fill="#ff7070" fill-rule="evenodd" group-id="5" id="Shape" node-id="28" stroke="none" target-height="85.20001" target-width="50.099976" target-x="933.9" target-y="525"/><path d="M 918.60 467.00 L 951.50 482.20 L 980.00 538.60 L 953.30 562.00 L 918.60 520.90 Z" fill="#221e41" fill-rule="evenodd" group-id="5" id="Shape" node-id="29" stroke="none" target-height="95" target-width="61.400024" target-x="918.6" target-y="467"/><path d="M 950.00 915.00 L 953.00 936.60 L 931.40 936.60 L 928.40 915.00 Z" fill="#fe9f9f" fill-rule="evenodd" group-id="5" id="Shape" node-id="30" stroke="none" target-height="21.599976" target-width="24.599976" target-x="928.4" target-y="915"/><path d="M 868.90 913.40 L 868.90 935.00 L 847.20 935.00 L 847.20 913.40 Z" fill="#fe9f9f" fill-rule="evenodd" group-id="5" id="Shape" node-id="31" stroke="none" target-height="21.599976" target-width="21.700012" target-x="847.2" target-y="913.4"/><path d="M 927.00 926.50 L 889.00 802.60 L 876.80 639.10 L 947.70 637.30 L 935.80 796.70 L 955.20 926.50 Z" fill="#211d41" fill-rule="evenodd" group-id="5" id="Shape" node-id="32" stroke="none" target-height="289.2" target-width="78.400024" target-x="876.8" target-y="637.3"/><path d="M 842.80 926.20 L 842.80 769.60 L 851.90 639.30 L 947.80 637.70 L 893.00 790.20 L 872.60 926.20 Z" fill="#312c74" fill-rule="evenodd" group-id="5" id="Shape" node-id="33" stroke="none" target-height="288.5" target-width="105" target-x="842.8" target-y="637.7"/><path d="M 870.50 935.00 L 870.30 951.70 L 869.80 952.80 L 868.10 954.60 L 865.70 955.20 L 823.10 955.20 L 821.90 954.90 L 820.90 954.10 L 820.20 952.90 L 820.00 951.50 L 820.30 948.90 L 820.90 946.90 L 821.90 945.40 L 824.70 943.10 L 833.40 939.80 L 847.70 935.00 L 870.50 935.00 Z" fill="#211d41" fill-rule="evenodd" group-id="5" id="Shape" node-id="34" stroke="none" target-height="20.200012" target-width="50.5" target-x="820" target-y="935"/><path d="M 954.50 935.00 L 954.30 951.70 L 953.80 952.80 L 952.10 954.60 L 949.70 955.20 L 907.10 955.20 L 905.90 954.90 L 904.90 954.10 L 904.20 952.90 L 904.00 951.50 L 904.30 948.90 L 904.90 946.90 L 905.90 945.40 L 908.70 943.10 L 917.40 939.80 L 931.70 935.00 L 954.50 935.00 Z" fill="#211d41" fill-rule="evenodd" group-id="5" id="Shape" node-id="35" stroke="none" target-height="20.200012" target-width="50.5" target-x="904" target-y="935"/><path d="M 894.70 471.80 L 891.50 465.50 L 888.70 461.10 L 886.30 458.20 L 884.20 456.30 L 882.30 455.40 L 875.00 454.70 L 872.80 454.20 L 871.00 453.20 L 869.30 450.90 L 867.80 446.10 L 866.90 444.30 L 865.80 442.80 L 863.40 441.50 L 860.60 440.90 L 859.30 440.10 L 858.40 438.30 L 858.70 435.50 L 862.50 429.30 L 863.40 426.70 L 863.90 423.60 L 863.90 419.70 L 863.20 415.10 L 861.70 409.40 L 867.70 404.80 L 873.10 401.30 L 877.90 398.80 L 882.20 397.10 L 886.10 396.10 L 889.60 395.60 L 892.90 395.80 L 895.80 396.40 L 898.60 397.50 L 901.20 399.10 L 903.70 401.20 L 906.10 404.00 L 908.40 407.50 L 912.00 414.20 L 914.80 420.40 L 916.80 426.20 L 918.30 431.70 L 919.10 436.80 L 919.40 441.60 L 919.20 446.10 L 918.50 450.40 L 925.00 467.80 L 894.70 471.80 Z" fill="#fe9f9f" fill-rule="evenodd" group-id="5" id="Shape" node-id="36" stroke="none" target-height="76.19998" target-width="66.599976" target-x="858.4" target-y="395.6"/><path d="M 918.80 450.10 L 913.50 451.70 L 909.70 452.30 L 907.10 452.30 L 905.40 451.90 L 904.20 451.10 L 902.70 449.40 L 900.10 445.00 L 898.10 439.60 L 898.10 438.70 L 898.50 438.10 L 902.10 436.70 L 902.90 436.10 L 903.60 434.80 L 904.00 433.20 L 903.60 430.30 L 902.10 428.40 L 900.60 427.50 L 899.30 427.20 L 897.00 427.60 L 894.80 429.00 L 892.70 428.70 L 891.50 427.70 L 890.60 426.30 L 889.90 423.90 L 888.90 416.40 L 887.90 414.30 L 887.20 414.00 L 886.20 414.20 L 879.70 415.80 L 872.80 416.30 L 866.80 415.50 L 862.40 413.70 L 860.50 412.30 L 858.90 410.50 L 857.50 408.20 L 856.20 405.00 L 855.10 399.40 L 855.10 397.00 L 855.60 394.60 L 856.50 392.60 L 857.80 390.80 L 859.50 389.30 L 861.40 388.20 L 863.80 387.50 L 866.70 387.10 L 875.30 387.50 L 882.70 387.40 L 897.60 385.00 L 904.80 384.30 L 908.40 384.50 L 912.00 385.20 L 916.40 387.40 L 918.70 389.20 L 920.70 391.30 L 922.80 394.00 L 924.90 397.60 L 927.30 402.70 L 928.70 407.10 L 929.50 411.10 L 929.70 415.10 L 929.40 418.70 L 927.60 425.30 L 923.00 434.30 L 921.60 438.20 L 921.40 439.60 L 922.10 444.20 L 922.00 445.90 L 921.50 447.40 L 920.40 448.80 L 918.80 450.10 Z" fill="#221e41" fill-rule="evenodd" group-id="5" id="Shape" node-id="37" stroke="none" target-height="68" target-width="74.60004" target-x="855.1" target-y="384.3"/><path d="M 777.50 541.00 L 720.60 517.80 L 742.90 502.00 L 805.00 523.00 Z" fill="#ffffff" fill-rule="evenodd" group-id="5" id="Shape" node-id="38" stroke="none" target-height="39" target-width="84.400024" target-x="720.6" target-y="502"/><path d="M 907.80 465.50 L 915.00 463.70 L 922.10 463.30 L 926.80 463.80 L 931.30 465.00 L 935.70 466.70 L 939.80 468.90 L 943.60 471.60 L 947.00 474.80 L 949.30 477.60 L 953.10 483.70 L 954.60 487.20 L 955.70 490.80 L 956.80 498.20 L 956.70 502.00 L 947.10 653.00 L 851.80 639.50 L 864.10 520.70 L 865.10 513.90 L 866.50 507.60 L 868.40 501.80 L 870.80 496.40 L 873.60 491.40 L 876.90 486.70 L 880.70 482.40 L 884.90 478.40 L 889.70 474.70 L 895.10 471.30 L 901.10 468.30 L 907.80 465.50 Z" fill="#ee342c" fill-rule="evenodd" group-id="5" id="Shape" node-id="39" stroke="none" target-height="189.70001" target-width="105" target-x="851.8" target-y="463.3"/><path d="M 923.60 537.20 L 899.40 571.40 L 855.20 598.90 L 857.30 570.50 Z" fill="#221e41" fill-rule="evenodd" group-id="5" id="Shape" node-id="40" stroke="none" target-height="61.700012" target-width="68.39996" target-x="855.2" target-y="537.2"/><path d="M 895.70 516.10 L 910.40 549.10 L 901.70 557.50 L 893.90 564.50 L 886.80 570.20 L 880.30 574.80 L 874.40 578.40 L 869.10 581.10 L 864.30 583.10 L 859.90 584.30 L 855.80 585.00 L 852.10 585.20 L 848.10 584.80 L 843.50 583.80 L 838.00 582.00 L 831.70 579.30 L 824.30 575.50 L 815.70 570.40 L 805.90 563.90 L 794.60 555.70 L 781.70 545.60 L 762.70 545.60 L 759.80 545.30 L 757.10 544.50 L 754.60 543.20 L 752.20 541.40 L 749.90 539.00 L 747.70 535.90 L 745.60 532.10 L 743.70 527.30 L 765.10 531.00 L 762.00 521.40 L 766.60 521.80 L 769.10 522.70 L 771.80 524.10 L 774.30 525.80 L 776.50 527.90 L 778.50 530.30 L 780.40 533.30 L 850.60 558.00 L 895.70 516.10 Z" fill="#fe9f9f" fill-rule="evenodd" group-id="5" id="Shape" node-id="41" stroke="none" target-height="69.10004" target-width="166.70001" target-x="743.7" target-y="516.1"/><path d="M 859.40 904.30 L 859.90 897.30 L 860.90 897.40 L 860.40 904.30 L 859.40 904.30 Z M 860.50 887.30 L 861.00 880.30 L 862.00 880.40 L 861.50 887.40 L 860.50 887.30 Z M 861.60 870.40 L 862.10 863.40 L 863.10 863.40 L 862.60 870.40 L 861.60 870.40 Z M 862.70 853.40 L 863.20 846.40 L 864.20 846.50 L 863.70 853.50 L 862.70 853.40 Z M 863.90 836.40 L 864.30 829.40 L 865.30 829.50 L 864.90 836.50 L 863.90 836.40 Z M 865.00 819.50 L 865.40 812.50 L 866.40 812.50 L 866.00 819.50 L 865.00 819.50 Z M 866.10 802.50 L 866.50 795.50 L 867.50 795.60 L 867.10 802.60 L 866.10 802.50 Z M 867.20 785.50 L 867.60 778.50 L 868.60 778.60 L 868.20 785.60 L 867.20 785.50 Z M 868.90 768.60 L 870.40 761.70 L 871.40 761.90 L 869.90 768.80 L 868.90 768.60 Z M 872.50 752.00 L 874.00 745.10 L 875.00 745.30 L 873.50 752.20 L 872.50 752.00 Z M 876.10 735.40 L 877.60 728.50 L 878.60 728.70 L 877.10 735.60 L 876.10 735.40 Z M 879.70 718.70 L 881.20 711.90 L 882.20 712.10 L 880.70 719.00 L 879.70 718.70 Z M 883.30 702.10 L 884.80 695.30 L 885.80 695.50 L 884.30 702.30 L 883.30 702.10 Z M 886.90 685.50 L 888.40 678.70 L 889.40 678.90 L 887.90 685.70 L 886.90 685.50 Z M 890.50 668.90 L 892.00 662.10 L 893.00 662.30 L 891.50 669.10 L 890.50 668.90 Z" fill="#a587ff" fill-rule="nonzero" group-id="5" id="Shape" node-id="42" stroke="none" target-height="242.20001" target-width="33.599976" target-x="859.4" target-y="662.1"/><path d="M 897.20 565.80 L 870.70 534.60 L 877.40 526.80 L 883.40 520.60 L 888.90 515.80 L 893.70 512.10 L 898.10 509.40 L 902.10 507.60 L 905.70 506.50 L 909.00 506.00 L 912.00 506.10 L 914.90 506.70 L 917.60 507.80 L 920.20 509.50 L 922.80 511.80 L 924.90 514.40 L 926.50 517.10 L 927.50 519.90 L 928.00 522.90 L 927.90 526.00 L 927.30 529.40 L 926.00 533.10 L 924.00 537.30 L 921.00 541.80 L 917.10 546.90 L 911.90 552.50 L 905.30 558.80 L 897.20 565.80 Z" fill="#ee342c" fill-rule="evenodd" group-id="5" id="Shape" node-id="43" stroke="none" target-height="59.799988" target-width="57.299988" target-x="870.7" target-y="506"/></g><g node-id="97"><path d="M 56.40 240.50 L 207.50 120.50 L 400.00 121.10 L 340.00 956.00 L 58.00 956.00 Z" fill="#53a5ff" fill-rule="evenodd" group-id="6" id="Shape" node-id="45" stroke="none" target-height="835.5" target-width="343.6" target-x="56.4" target-y="120.5"/><path d="M 56.40 240.50 L 207.50 120.50 L 400.00 121.10 L 288.10 241.80 Z" fill="#3b97fc" fill-rule="evenodd" group-id="6" id="Shape" node-id="46" stroke="none" target-height="121.3" target-width="343.6" target-x="56.4" target-y="120.5"/><path d="M 278.00 241.00 L 402.00 120.50 L 513.00 241.00 L 513.00 956.00 L 278.00 956.00 Z" fill="#1056bf" fill-rule="evenodd" group-id="6" id="Shape" node-id="47" stroke="none" target-height="835.5" target-width="235" target-x="278" target-y="120.5"/><path d="M 308.00 819.00 L 488.00 819.00 L 488.00 955.00 L 308.00 955.00 Z" fill="#53a5ff" fill-rule="evenodd" group-id="6" id="Shape" node-id="48" stroke="none" target-height="136" target-width="180" target-x="308" target-y="819"/><path d="M 308.00 829.00 L 478.00 829.00 L 478.00 955.00 L 308.00 955.00 Z" fill="#3b97fc" fill-rule="evenodd" group-id="6" id="Shape" node-id="49" stroke="none" target-height="126" target-width="170" target-x="308" target-y="829"/><path d="M 308.00 332.00 L 377.00 332.00 L 377.00 403.00 L 308.00 403.00 Z" fill="#53a5ff" fill-rule="evenodd" group-id="6" id="Shape" node-id="50" stroke="none" target-height="71" target-width="69" target-x="308" target-y="332"/><path d="M 308.00 453.00 L 377.00 453.00 L 377.00 524.00 L 308.00 524.00 Z" fill="#53a5ff" fill-rule="evenodd" group-id="6" id="Shape" node-id="51" stroke="none" target-height="71" target-width="69" target-x="308" target-y="453"/><path d="M 308.00 332.00 L 367.00 332.00 L 367.00 393.00 L 308.00 393.00 Z" fill="#3b97fc" fill-rule="evenodd" group-id="6" id="Shape" node-id="52" stroke="none" target-height="61" target-width="59" target-x="308" target-y="332"/><path d="M 308.00 453.00 L 367.00 453.00 L 367.00 514.00 L 308.00 514.00 Z" fill="#3b97fc" fill-rule="evenodd" group-id="6" id="Shape" node-id="53" stroke="none" target-height="61" target-width="59" target-x="308" target-y="453"/><path d="M 424.00 332.00 L 493.00 332.00 L 493.00 403.00 L 424.00 403.00 Z" fill="#53a5ff" fill-rule="evenodd" group-id="6" id="Shape" node-id="54" stroke="none" target-height="71" target-width="69" target-x="424" target-y="332"/><path d="M 424.00 453.00 L 493.00 453.00 L 493.00 524.00 L 424.00 524.00 Z" fill="#53a5ff" fill-rule="evenodd" group-id="6" id="Shape" node-id="55" stroke="none" target-height="71" target-width="69" target-x="424" target-y="453"/><path d="M 424.00 332.00 L 483.00 332.00 L 483.00 393.00 L 424.00 393.00 Z" fill="#3b97fc" fill-rule="evenodd" group-id="6" id="Shape" node-id="56" stroke="none" target-height="61" target-width="59" target-x="424" target-y="332"/><path d="M 424.00 453.00 L 483.00 453.00 L 483.00 514.00 L 424.00 514.00 Z" fill="#3b97fc" fill-rule="evenodd" group-id="6" id="Shape" node-id="57" stroke="none" target-height="61" target-width="59" target-x="424" target-y="453"/><path d="M 308.00 574.00 L 377.00 574.00 L 377.00 645.00 L 308.00 645.00 Z" fill="#53a5ff" fill-rule="evenodd" group-id="6" id="Shape" node-id="58" stroke="none" target-height="71" target-width="69" target-x="308" target-y="574"/><path d="M 308.00 574.00 L 367.00 574.00 L 367.00 635.00 L 308.00 635.00 Z" fill="#3b97fc" fill-rule="evenodd" group-id="6" id="Shape" node-id="59" stroke="none" target-height="61" target-width="59" target-x="308" target-y="574"/><path d="M 424.00 574.00 L 493.00 574.00 L 493.00 645.00 L 424.00 645.00 Z" fill="#53a5ff" fill-rule="evenodd" group-id="6" id="Shape" node-id="60" stroke="none" target-height="71" target-width="69" target-x="424" target-y="574"/><path d="M 424.00 574.00 L 483.00 574.00 L 483.00 635.00 L 424.00 635.00 Z" fill="#3b97fc" fill-rule="evenodd" group-id="6" id="Shape" node-id="61" stroke="none" target-height="61" target-width="59" target-x="424" target-y="574"/><path d="M 308.00 695.00 L 377.00 695.00 L 377.00 766.00 L 308.00 766.00 Z" fill="#53a5ff" fill-rule="evenodd" group-id="6" id="Shape" node-id="62" stroke="none" target-height="71" target-width="69" target-x="308" target-y="695"/><path d="M 308.00 695.00 L 367.00 695.00 L 367.00 756.00 L 308.00 756.00 Z" fill="#3b97fc" fill-rule="evenodd" group-id="6" id="Shape" node-id="63" stroke="none" target-height="61" target-width="59" target-x="308" target-y="695"/><path d="M 424.00 695.00 L 493.00 695.00 L 493.00 766.00 L 424.00 766.00 Z" fill="#53a5ff" fill-rule="evenodd" group-id="6" id="Shape" node-id="64" stroke="none" target-height="71" target-width="69" target-x="424" target-y="695"/><path d="M 424.00 695.00 L 483.00 695.00 L 483.00 756.00 L 424.00 756.00 Z" fill="#3b97fc" fill-rule="evenodd" group-id="6" id="Shape" node-id="65" stroke="none" target-height="61" target-width="59" target-x="424" target-y="695"/></g><g node-id="98"><path d="M 229.90 878.00 L 234.70 870.00 L 238.70 862.30 L 241.80 855.10 L 244.20 848.10 L 246.00 841.40 L 247.10 835.00 L 247.60 828.80 L 247.50 822.80 L 246.90 816.90 L 245.80 811.20 L 244.10 805.70 L 234.10 777.40 L 231.60 768.30 L 230.30 762.10 L 229.40 755.90 L 228.90 749.80 L 228.90 743.60 L 229.50 737.20 L 230.70 730.80 L 233.80 721.20 L 236.00 716.10 L 241.50 705.80 L 243.90 700.40 L 248.30 688.50 L 251.50 676.10 L 252.70 669.70 L 253.90 657.70 L 254.00 651.70 L 253.60 646.20 L 252.80 641.20 L 251.90 637.50 L 249.20 631.40 L 247.50 628.80 L 245.50 626.60 L 243.10 624.80 L 240.50 623.40 L 237.40 622.40 L 234.30 622.00 L 230.80 622.10 L 226.70 622.70 L 221.90 624.10 L 217.30 625.90 L 213.40 627.90 L 210.00 630.00 L 207.20 632.30 L 203.70 635.90 L 200.80 639.70 L 198.50 643.90 L 194.90 653.10 L 187.60 683.40 L 184.80 692.60 L 182.50 698.70 L 179.80 704.90 L 173.60 716.00 L 166.40 725.40 L 157.90 735.00 L 154.30 740.10 L 151.20 745.40 L 148.50 751.20 L 146.40 757.30 L 144.80 763.80 L 143.70 770.80 L 143.10 778.30 L 143.10 786.40 L 143.70 795.10 L 145.00 804.40 L 147.10 814.50 L 149.90 825.40 L 153.60 837.10 L 158.30 849.80 L 164.10 863.40 L 170.90 878.00 L 229.90 878.00 Z" fill="#fda0a2" fill-rule="evenodd" group-id="7" id="Shape" node-id="67" stroke="none" target-height="256" target-width="110.899994" target-x="143.1" target-y="622"/><path d="M 204.10 878.40 L 203.50 878.90 L 202.80 878.90 L 202.20 878.40 L 202.20 877.60 L 206.30 867.80 L 209.50 858.50 L 212.00 849.70 L 213.70 841.30 L 214.80 833.40 L 215.20 825.80 L 215.10 818.50 L 214.40 811.60 L 213.20 804.90 L 211.10 797.00 L 204.00 773.20 L 201.40 762.10 L 200.10 751.90 L 200.20 741.90 L 201.70 732.00 L 204.70 721.80 L 206.90 716.50 L 214.10 700.80 L 218.10 690.70 L 221.40 680.50 L 224.10 670.30 L 226.30 659.90 L 227.80 649.40 L 228.70 638.80 L 229.00 628.00 L 229.30 627.30 L 230.00 627.00 L 230.70 627.30 L 231.00 628.00 L 230.70 638.90 L 229.80 649.70 L 228.20 660.30 L 226.10 670.70 L 223.30 681.10 L 220.00 691.40 L 216.00 701.50 L 208.70 717.20 L 206.60 722.40 L 203.70 732.40 L 202.20 742.10 L 202.10 751.80 L 202.60 756.80 L 203.90 764.40 L 205.90 772.70 L 213.10 796.40 L 215.10 804.50 L 216.40 811.30 L 217.10 818.40 L 217.20 825.80 L 216.80 833.50 L 215.70 841.60 L 213.90 850.10 L 211.40 859.10 L 208.20 868.50 L 204.10 878.40 Z" fill="#ffffff" fill-rule="nonzero" group-id="7" id="Shape" node-id="68" stroke="none" target-height="251.90002" target-width="30.899994" target-x="200.1" target-y="627"/><path d="M 99.10 878.00 L 99.70 874.50 L 99.90 870.50 L 99.60 865.90 L 98.70 860.60 L 97.10 854.50 L 94.60 847.60 L 91.20 839.60 L 82.70 822.60 L 79.30 814.90 L 76.60 807.30 L 75.00 801.50 L 73.90 795.90 L 73.20 790.30 L 73.00 784.80 L 73.30 779.30 L 74.20 773.90 L 75.70 768.40 L 77.80 763.00 L 80.40 757.80 L 83.70 752.60 L 87.90 747.30 L 97.60 737.10 L 104.00 729.30 L 106.40 725.40 L 108.10 721.90 L 109.20 718.60 L 109.90 715.30 L 110.10 712.00 L 109.90 708.70 L 108.30 702.00 L 104.50 692.80 L 94.40 671.80 L 92.50 667.00 L 91.20 662.40 L 90.40 657.80 L 90.10 653.20 L 90.30 649.00 L 91.00 645.00 L 92.20 641.20 L 93.90 638.00 L 96.00 635.20 L 97.90 633.50 L 100.00 632.00 L 102.30 631.00 L 105.00 630.30 L 107.70 630.00 L 110.60 630.10 L 114.00 630.80 L 117.80 632.00 L 121.20 633.50 L 129.30 638.50 L 138.20 645.90 L 147.80 656.10 L 157.80 668.60 L 164.60 679.20 L 167.10 683.90 L 170.00 690.50 L 172.00 696.60 L 173.30 702.10 L 174.00 707.80 L 174.30 713.10 L 174.10 718.10 L 173.10 725.60 L 171.70 732.70 L 166.70 753.50 L 165.70 760.60 L 165.50 765.30 L 165.70 770.30 L 166.50 775.40 L 167.80 780.50 L 169.80 786.00 L 176.20 799.00 L 179.00 805.90 L 181.20 812.50 L 182.70 818.90 L 183.60 825.20 L 184.00 831.30 L 183.80 837.30 L 183.00 843.20 L 181.70 849.00 L 179.90 854.80 L 177.40 860.60 L 174.40 866.40 L 170.70 872.20 L 166.30 878.00 L 99.10 878.00 Z" fill="#ee342c" fill-rule="evenodd" group-id="7" id="Shape" node-id="69" stroke="none" target-height="248" target-width="111" target-x="73" target-y="630"/><path d="M 124.90 885.60 L 124.20 886.00 L 123.50 885.80 L 123.10 885.20 L 123.30 884.40 L 126.90 878.90 L 129.80 873.30 L 132.20 867.70 L 133.90 862.00 L 135.10 856.20 L 135.70 850.40 L 135.70 844.30 L 135.20 838.20 L 134.10 831.80 L 132.30 825.20 L 127.50 811.80 L 125.70 805.40 L 124.40 799.10 L 123.60 792.80 L 123.30 786.40 L 123.40 780.00 L 124.00 773.60 L 125.00 767.20 L 126.50 760.80 L 130.50 748.30 L 136.00 736.00 L 141.50 725.40 L 143.10 721.30 L 144.20 717.10 L 144.80 712.90 L 145.00 708.70 L 144.70 704.20 L 143.90 699.50 L 142.40 694.60 L 140.70 690.10 L 135.70 680.20 L 132.10 674.70 L 127.90 668.80 L 122.50 662.20 L 116.10 655.00 L 108.40 647.20 L 99.30 638.70 L 99.00 638.10 L 99.30 637.30 L 99.90 637.00 L 100.70 637.30 L 109.80 645.80 L 117.60 653.70 L 124.10 661.00 L 129.50 667.70 L 133.90 673.70 L 137.40 679.20 L 142.60 689.30 L 144.30 693.90 L 145.80 699.10 L 146.70 704.00 L 147.00 708.70 L 146.80 713.10 L 146.20 717.50 L 145.00 721.90 L 143.40 726.20 L 137.80 736.90 L 132.40 749.00 L 128.40 761.30 L 127.00 767.60 L 126.00 773.90 L 125.40 780.10 L 125.30 786.40 L 125.60 792.60 L 126.40 798.80 L 127.60 805.00 L 129.40 811.20 L 134.20 824.60 L 136.00 831.40 L 137.20 838.00 L 137.70 844.30 L 137.70 850.50 L 137.10 856.50 L 135.80 862.50 L 134.00 868.30 L 131.60 874.10 L 128.60 879.80 L 124.90 885.60 Z" fill="#ffffff" fill-rule="nonzero" group-id="7" id="Shape" node-id="70" stroke="none" target-height="249" target-width="48" target-x="99" target-y="637"/><path d="M 58.00 872.00 L 278.00 872.00 L 278.00 956.00 L 58.00 956.00 Z" fill="#1056bf" fill-rule="evenodd" group-id="7" id="Shape" node-id="71" stroke="none" target-height="84" target-width="220" target-x="58" target-y="872"/></g><g node-id="99"><path d="M 466.30 914.60 L 488.90 914.60 L 488.90 937.20 L 466.30 937.20 Z" fill="#fe9f9f" fill-rule="evenodd" group-id="8" id="Shape" node-id="73" stroke="none" target-height="22.600037" target-width="22.600006" target-x="466.3" target-y="914.6"/><path d="M 532.90 914.60 L 555.50 914.60 L 555.50 937.20 L 532.90 937.20 Z" fill="#fe9f9f" fill-rule="evenodd" group-id="8" id="Shape" node-id="74" stroke="none" target-height="22.600037" target-width="22.599976" target-x="532.9" target-y="914.6"/><path d="M 493.00 928.30 L 463.60 928.30 L 450.70 628.20 L 524.50 627.80 Z" fill="#211d41" fill-rule="evenodd" group-id="8" id="Shape" node-id="75" stroke="none" target-height="300.5" target-width="73.79999" target-x="450.7" target-y="627.8"/><path d="M 560.10 928.00 L 529.00 928.00 L 520.10 767.30 L 450.70 628.20 L 550.70 628.00 L 571.70 731.60 L 573.20 740.50 L 574.00 749.30 L 574.20 758.20 L 573.70 767.10 L 560.10 928.00 Z" fill="#312c74" fill-rule="evenodd" group-id="8" id="Shape" node-id="76" stroke="none" target-height="300" target-width="123.5" target-x="450.7" target-y="628"/><path d="M 515.70 467.80 L 487.40 454.60 L 492.40 443.70 L 492.00 439.20 L 492.20 434.40 L 492.80 429.40 L 494.10 424.20 L 496.00 418.60 L 498.60 412.70 L 501.90 406.40 L 506.10 399.60 L 508.80 396.20 L 511.50 393.40 L 514.20 391.40 L 517.10 389.90 L 520.10 389.00 L 523.20 388.60 L 526.60 388.70 L 530.20 389.40 L 534.20 390.70 L 538.60 392.80 L 543.40 395.80 L 548.80 399.80 L 554.70 405.00 L 552.70 410.80 L 551.70 415.70 L 551.40 419.70 L 551.70 423.00 L 552.40 425.80 L 555.20 430.60 L 556.00 432.50 L 556.20 434.00 L 555.70 436.40 L 555.00 437.20 L 553.60 438.00 L 550.60 438.40 L 548.00 439.60 L 546.70 441.10 L 545.70 442.90 L 543.70 447.80 L 541.80 450.10 L 539.20 451.20 L 537.50 451.40 L 529.80 451.50 L 527.80 452.40 L 525.50 454.10 L 522.70 457.00 L 519.50 461.40 L 515.70 467.80 Z" fill="#fe9f9f" fill-rule="evenodd" group-id="8" id="Shape" node-id="77" stroke="none" target-height="79.19998" target-width="68.80002" target-x="487.4" target-y="388.6"/><path d="M 620.70 594.20 L 657.50 543.90 L 614.00 531.00 L 583.00 572.70 Z" fill="#ffffff" fill-rule="evenodd" group-id="8" id="Shape" node-id="78" stroke="none" target-height="63.200012" target-width="74.5" target-x="583" target-y="531"/><path d="M 531.60 934.70 L 555.40 934.70 L 570.40 939.70 L 579.50 943.10 L 582.50 945.60 L 583.50 947.10 L 584.10 949.20 L 584.40 951.90 L 584.20 953.40 L 583.50 954.60 L 582.50 955.50 L 581.20 955.80 L 535.30 955.60 L 533.10 954.30 L 531.80 952.10 L 531.60 934.70 Z" fill="#211d41" fill-rule="evenodd" group-id="8" id="Shape" node-id="79" stroke="none" target-height="21.099976" target-width="52.80005" target-x="531.6" target-y="934.7"/><path d="M 465.00 934.70 L 488.80 934.70 L 503.80 939.70 L 512.90 943.10 L 515.90 945.60 L 516.90 947.10 L 517.50 949.20 L 517.80 951.90 L 517.60 953.40 L 516.90 954.60 L 515.90 955.50 L 514.60 955.80 L 468.70 955.60 L 466.50 954.30 L 465.20 952.10 L 465.00 934.70 Z" fill="#211d41" fill-rule="evenodd" group-id="8" id="Shape" node-id="80" stroke="none" target-height="21.099976" target-width="52.799988" target-x="465" target-y="934.7"/><path d="M 603.20 578.60 L 607.70 579.60 L 610.90 579.90 L 613.10 579.70 L 614.50 579.30 L 615.50 578.60 L 617.70 575.70 L 620.40 571.30 L 622.50 572.90 L 623.80 574.40 L 624.50 575.90 L 624.60 577.50 L 624.10 579.20 L 628.20 579.50 L 631.20 580.10 L 633.40 580.90 L 635.60 582.60 L 636.60 585.30 L 636.80 587.70 L 636.60 590.60 L 636.00 593.50 L 633.90 598.00 L 631.30 600.60 L 628.00 602.00 L 623.80 602.20 L 621.20 601.70 L 614.10 599.70 L 599.80 597.00 L 603.20 578.60 Z" fill="#fe9f9f" fill-rule="evenodd" group-id="8" id="Shape" node-id="81" stroke="none" target-height="30.900024" target-width="37" target-x="599.8" target-y="571.3"/><path d="M 508.70 646.40 L 509.70 646.00 L 512.40 652.90 L 511.40 653.20 L 508.70 646.40 Z M 515.20 663.00 L 516.20 662.60 L 518.80 669.40 L 517.80 669.80 L 515.20 663.00 Z M 521.60 679.50 L 522.60 679.10 L 525.30 686.00 L 524.30 686.30 L 521.60 679.50 Z M 528.10 696.10 L 529.10 695.70 L 531.70 702.50 L 530.80 702.90 L 528.10 696.10 Z M 534.60 712.60 L 535.50 712.20 L 538.20 719.10 L 537.20 719.40 L 534.60 712.60 Z M 541.00 729.20 L 542.00 728.80 L 543.50 732.60 L 544.60 735.60 L 543.60 736.00 L 541.00 729.20 Z M 546.60 746.00 L 547.60 745.70 L 549.10 752.90 L 548.10 753.10 L 546.60 746.00 Z M 549.30 763.40 L 550.40 763.30 L 550.60 770.70 L 549.60 770.70 L 549.30 763.40 Z M 549.40 781.10 L 550.40 781.10 L 550.20 788.50 L 549.20 788.40 L 549.40 781.10 Z M 548.90 798.90 L 549.90 798.90 L 549.70 806.20 L 548.70 806.20 L 548.90 798.90 Z M 548.40 816.60 L 549.40 816.70 L 549.20 824.00 L 548.20 823.90 L 548.40 816.60 Z M 547.90 834.40 L 548.90 834.40 L 548.70 841.70 L 547.70 841.70 L 547.90 834.40 Z M 547.40 852.10 L 548.40 852.20 L 548.20 859.50 L 547.20 859.50 L 547.40 852.10 Z M 546.90 869.90 L 548.00 869.90 L 547.80 877.20 L 546.70 877.20 L 546.90 869.90 Z M 546.40 887.70 L 547.50 887.70 L 547.30 895.00 L 546.20 895.00 L 546.40 887.70 Z M 545.90 905.40 L 547.00 905.50 L 546.80 912.80 L 545.70 912.70 L 545.90 905.40 Z" fill="#a587ff" fill-rule="nonzero" group-id="8" id="Shape" node-id="82" stroke="none" target-height="266.8" target-width="41.899963" target-x="508.7" target-y="646"/><path d="M 551.70 633.30 L 450.70 638.40 L 447.70 496.50 L 448.30 489.20 L 449.30 482.90 L 450.60 477.40 L 452.30 472.70 L 454.30 468.60 L 456.50 465.20 L 459.00 462.20 L 461.80 459.80 L 464.90 457.80 L 468.40 456.20 L 472.20 455.00 L 476.40 454.30 L 481.20 454.00 L 487.50 454.20 L 493.80 454.80 L 500.10 455.80 L 506.20 457.30 L 512.00 459.30 L 517.60 461.90 L 521.60 464.10 L 525.30 466.70 L 528.80 469.70 L 532.10 473.00 L 535.00 476.60 L 537.70 480.70 L 540.00 485.20 L 542.00 490.30 L 543.50 495.30 L 544.70 501.00 L 545.40 507.40 L 548.50 556.90 L 607.70 576.50 L 606.10 600.40 L 548.50 595.30 L 551.70 633.30 Z" fill="#ee342c" fill-rule="evenodd" group-id="8" id="Shape" node-id="83" stroke="none" target-height="184.40002" target-width="160" target-x="447.7" target-y="454"/><path d="M 548.50 595.30 L 549.20 604.30 L 516.10 594.50 L 515.60 534.10 L 523.90 578.00 L 524.60 580.70 L 525.80 583.20 L 527.40 585.40 L 529.40 587.40 L 531.70 588.90 L 534.30 590.10 L 548.50 595.30 Z" fill="#221e41" fill-rule="evenodd" group-id="8" id="Shape" node-id="84" stroke="none" target-height="70.20001" target-width="33.600037" target-x="515.6" target-y="534.1"/><path d="M 563.70 401.60 L 562.80 404.70 L 561.50 407.30 L 559.80 409.50 L 557.80 411.30 L 555.20 412.80 L 552.20 413.90 L 548.50 414.60 L 538.30 415.00 L 530.20 416.00 L 525.40 417.80 L 522.30 420.50 L 520.40 424.20 L 519.90 426.80 L 519.50 442.90 L 518.30 454.20 L 517.00 459.80 L 515.80 463.50 L 514.20 466.90 L 512.30 470.10 L 510.00 473.00 L 507.20 475.50 L 504.00 477.60 L 501.30 478.80 L 498.30 479.70 L 494.90 480.30 L 487.10 480.80 L 483.50 481.40 L 480.10 482.40 L 476.90 483.80 L 472.90 486.20 L 469.20 489.00 L 465.80 492.40 L 460.00 500.00 L 457.50 504.20 L 453.50 512.90 L 450.10 523.70 L 449.00 529.50 L 448.50 535.10 L 448.60 539.20 L 444.40 531.30 L 441.00 523.90 L 438.40 517.00 L 436.60 510.40 L 435.40 504.10 L 434.90 498.10 L 434.90 492.40 L 435.50 486.90 L 436.70 481.50 L 438.40 476.40 L 440.70 471.30 L 443.60 466.40 L 447.20 461.50 L 454.60 452.50 L 474.90 429.70 L 479.60 422.60 L 482.10 416.40 L 482.80 413.10 L 483.60 400.50 L 484.20 396.70 L 485.20 393.40 L 486.40 390.40 L 488.10 387.60 L 490.00 385.20 L 492.20 383.10 L 494.60 381.30 L 498.30 379.50 L 502.30 378.10 L 506.80 377.30 L 511.40 377.00 L 516.40 377.20 L 557.70 384.30 L 560.90 385.30 L 562.30 386.10 L 563.30 387.20 L 564.10 388.70 L 564.70 390.70 L 564.80 393.40 L 564.60 397.00 L 563.70 401.60 Z" fill="#211d41" fill-rule="evenodd" group-id="8" id="Shape" node-id="85" stroke="none" target-height="162.20001" target-width="129.9" target-x="434.9" target-y="377"/></g></svg>