<svg xmlns="http://www.w3.org/2000/svg" xmlns:xlink="http://www.w3.org/1999/xlink" t="1734257352055" class="icon" viewBox="0 0 3261 1024" version="1.1" p-id="7595" data-darkreader-inline-fill="" width="216.55078125" height="68"><path d="M1288.344 771.11c0-54.613 43.804-98.76 97.735-98.76 36.409 0 68.039 20.291 84.84 49.987h39.102a132.817 132.817 0 0 0-123.525-85.144 133.12 133.12 0 0 0-132.968 133.538c0 75.358 59.43 133.916 132.968 133.916a132.096 132.096 0 0 0 124.321-85.902h-38.684c-16.46 31.25-48.925 50.783-86.054 50.783a97.394 97.394 0 0 1-97.735-98.418z m1870.127-58.558c-20.707 0-40.277 8.989-52.755 19.532-19.57 17.18-25.79 42.932-25.79 42.932-16.46 63.26 12.895 102.324 12.895 102.324 14.412 19.494 43.388 27.307 66.067 27.307 39.443 3.906 68.419-11.719 68.419-11.719v-31.213c-115.333 42.932-116.509-42.97-116.509-42.97h124.283c1.138-38.647-7.433-63.64-19.152-79.645-21.504-29.278-57.496-26.548-57.496-26.548z m0 32.01c36.409 0 37.926 42.97 37.926 42.97h-82.489s7.813-42.97 44.563-42.97z m-378.5-14.412V623.957h-37.51v280.69h28.559l5.082-19.532c16.422 19.532 45.739 23.438 45.739 23.438 25.41 0 44.942-11.719 58.633-27.306 16.043-15.626 24.273-42.97 25.41-54.69 3.528-27.685 2.769-83.17-45.738-106.571a71.035 71.035 0 0 0-80.138 10.126z m-0.38 123.752v-90.605s16.422-18.318 44.184-18.318c27.382 0 40.277 21.466 43.804 53.476 3.527 32.009-4.703 74.98-43.008 74.98-33.64 0-44.98-19.533-44.98-19.533z m-159.137-140.97a96.787 96.787 0 0 0-96.56 96.862c0 51.921 43.388 94.853 96.56 94.853 53.21 0 96.597-42.932 96.597-94.853a96.787 96.787 0 0 0-96.597-96.862z m-63.716 96.862c0-35.536 28.559-64.057 63.716-64.057 35.195 0 63.715 28.52 63.715 64.057a62.957 62.957 0 0 1-63.715 63.64 62.957 62.957 0 0 1-63.716-63.64z m-265.481-165.167h-50.062v260.02h37.546V705.915l82.49 198.732h18.393l82.49-197.177v197.215h37.925V644.627h-49.683l-79.682 189.743-79.38-189.743z m-290.513 79.265v33.944s97.735-43.729 97.735 33.185l-0.379 1.972s-53.551-16.005-82.906 1.934c0 0-46.118 23.818-25.41 78.507 0 0 16.042 35.12 57.875 35.12 14.45 0 31.668-7.813 51.996-19.532l3.148 15.625h31.668V784.801s3.906-49.607-42.25-66.75c-44.183-16.042-91.477 5.841-91.477 5.841z m46.915 149.542s-30.114 0-25.41-31.25c4.285-31.252 43.007-27.308 74.675-19.533v35.158s-16.8 15.625-49.265 15.625zM1840.43 738.342l-5.878-21.883h-28.141v184.32h35.574v-123.79c7.055-11.34 26.17-37.092 59.847-31.63 0 0 19.532 3.11 19.532 35.536V900.74h37.168V782.033s5.044-55.41-44.222-67.509c0 0-44.942-11.757-73.88 23.818z m-263.926-1.972V623.16h-37.168V900.78h37.168V775.813c6.258-12.137 24.272-37.471 59.43-30.455 0 0 19.57 3.11 19.57 35.537V900.74h37.13V782.033s4.702-55.41-44.185-67.509c0 0-43.387-11.34-71.945 21.846z m1357.558-51.542h37.168v-40.58h-37.168v40.58z m112.602 219.82V623.16h-35.195v281.486h35.195z m-75.472 0V718.051h-37.168v186.595h37.168z m-1239.837-219.82h36.75v-40.58h-36.787v40.58z m36.75 219.82V718.051h-36.787v186.595h36.788z m1349.33-827.62h-48.887s0 42.97 0.379 96.066h-60.188v43.729h60.605c0.759 33.564-0.38 67.925-2.351 91.742-4.286 54.652-12.895 76.914-12.895 76.914-23.893 90.453-94.625 130.314-94.625 130.314l35.195 33.185c125.914-80.82 118.443-260.324 118.443-260.324l1.593-71.831h78.203l-9.406 237.264c0 29.658-28.937 28.103-28.937 28.103h-54.348l8.988 46.877h51.618c66.484 0 68.835-67.546 68.835-67.546l10.164-288.427h-124.359l1.972-96.066z m-105.17 379.41c-9.405-23.058-53.968-121.325-53.968-121.325l-41.074 17.56c11.378 24.235 22.68 51.048 31.668 73.311-20.328 4.665-73.88 17.18-100.086 25.79 0 0 12.895-21.125 36.37-86.585 19.533-53.476 23.06-69.518 30.873-79.645h106.382v-43.728h-231.5v43.728h74.714c-3.527 13.654-16.043 62.844-35.992 110.365-11.34 26.927-23.476 52.717-39.063 72.249l10.922 34.36s116.888-35.536 161.868-39.822l4.286 10.923 44.6-17.18zM2810.88 164.486h195.508v-44.108H2810.88v44.108z m-186.899 126.103l-43.008-7.016c6.637-3.489 12.895-7.395 18.773-11.302 85.637-56.244 113.778-119.087 113.778-119.087v-37.509h-147.418a257.138 257.138 0 0 0 15.663-28.482l-42.628-16.422s-34.778 75.776-103.235 127.317l37.168 28.482s32.426-30.075 64.095-69.897h125.914c-17.18 27.345-42.212 49.986-68.798 68.722l-55.524-46.08-29.316 30.454 46.914 39.064a535.59 535.59 0 0 1-111.047 45.663l28.141 35.954c40.657-15.626 71.15-27.724 97.735-41.416-7.016 12.137-25.031 39.823-57.837 69.898a390.258 390.258 0 0 1-78.203 54.955l33.602 33.564s66.864-34.36 116.13-93.98h94.625c-10.165 45.17-39.064 77.179-73.88 99.062l-50.82-49.607-32.086 26.169s28.558 26.927 43.804 43.729c-68.418 28.52-141.16 30.454-141.16 30.454l19.153 37.888c91.894-7.054 154.055-32.427 197.442-65.233 71.945-54.613 89.164-123.638 89.164-123.638V312.13h-117.684c3.906-7.054 7.433-14.032 10.543-21.504z m-159.896 56.624l-76.23-64.816v-22.603h64.094v-40.96h-64.095V152.84c29.696-7.054 65.65-14.07 65.65-14.07l-9.368-43.729c-38.684 12.516-167.746 26.17-167.746 26.17l6.637 43.31 59.847-9.746v64.019h-72.363v40.998h67.66c-5.461 17.18-28.558 86.698-75.852 152.538l33.224 35.953s27.382-44.145 47.331-88.936v183.41h44.942V338.223l46.156 44.146 30.113-35.157z m-369.891 28.103c-18.774-21.845-52.793-60.113-52.793-60.113l-33.223 24.994c28.937 31.63 50.441 63.146 50.441 63.146l35.575-28.027z m-97.015-62.047h99.328V272.27h-99.328v-60.15h107.9v-40.96h-259.603v40.96h108.316v60.188h-100.124v40.96h100.124v95.573h-115.75v40.96h274.09v-40.96h-114.915v-95.573zM1771.558 92.274v436.375h411.724V92.274h-411.686z m366.364 394.998h-322.18V134.827h322.18v352.445z m-476.994-322.75h-179.883V77.37h-47.293v87.078h-178.29V409.94h178.29V543.82h47.293V409.94h179.883V164.485z m-227.176 202.222h-132.134v-158.91h132.172v158.91z m47.293 0v-158.91h133.727v158.91h-133.727zM815.407 572.53l-65.08-61.971s-15.095-10.999-32.162 4.93c0 0-62.767 60.075-116.243 108.355-50.745 45.245-101.49 92.008-120.49 105.32 0 0-82.148 82.489-186.217 1.896 0 0-141.767-109.113-282.055-296.543L8.61 456.59s-5.273 18.205 7.205 35.347c0 0 109.492 158.53 244.281 272.195 0 0 67.205 70.314 153.145 85.523 0 0 70.921 19 138.316-34.21 32.957-24.727 104.637-90.49 164.674-146.394 55.41-51.655 99.214-96.521 99.214-96.521z" fill="#0085D0" p-id="7596" data-darkreader-inline-fill="" style="--darkreader-inline-fill: #006aa6;"/><path d="M944.735 709.518l-57.572-64.626s-7.016-9.481-20.631 2.39c-13.616 11.909-190.92 187.96-258.617 235.52a224.332 224.332 0 0 1-126.749 51.579c-34.626 3.982-71.945-3.982-111.767-19.835-43.35-19.835-109.493-75.321-171.426-139.568A1635.935 1635.935 0 0 1 74.031 627.826c-24.727-33.64-48.62-67.357-66.56-96.673 0 0 0 40.808 17.522 75.32 0 0 72.477 141.16 213.902 272.422 13.843 15.853 134.448 138.81 251.601 134.827 0 0 109.265 7.965 208.82-75.32 16.308-15.892 190.957-168.544 245.38-228.846zM201.387 457.766l65.232 61.82s14.981 10.998 32.161-4.931c0 0 62.578-59.923 115.94-108.09 50.745-45.017 101.49-91.666 120.49-104.94 0 0 82.148-83.058 186.369-1.896 0 0 142.222 108.733 282.093 295.746l4.665-21.997s5.044-18.205-7.358-35.271c0 0-109.265-158.075-244.13-271.474 0 0-67.432-69.784-153.448-87.23 0 0-70.921-16.308-137.936 35.272-32.92 25.41-104.903 91.022-164.712 146.773-55.562 51.465-99.366 96.218-99.366 96.218z" fill="#0085D0" p-id="7597" data-darkreader-inline-fill="" style="--darkreader-inline-fill: #006aa6;"/><path d="M72.135 320.626l57.496 64.626s7.206 9.481 20.745-2.39c13.464-11.87 191.033-187.468 258.617-237.037 38.874-28.14 80.479-46.383 126.37-49.531a228.162 228.162 0 0 1 111.957 19.418c43.577 19.797 109.681 74.107 171.5 139.947 43.54 45.966 87.496 97.09 124.019 146.508 24.5 33.716 48.62 67.394 66.522 96.71 0 0 0-40.808-17.522-75.282 0 0-72.704-141.009-213.864-274.205C763.98 136.723 643.45 13.426 526.412 16.194c0 0-109.265-6.333-208.896 76.914-16.157 13.881-190.843 167.253-245.38 227.556z" fill="#0085D0" p-id="7598" data-darkreader-inline-fill="" style="--darkreader-inline-fill: #006aa6;"/><path d="M54.727 361.396s99.442 129.176 209.01 214.737c0 0 41.49 35.043 85.978-4.551l227.897-203.397s68.608-67.508 146.015-0.759c0 0 162.095 141.995 251.031 261.12 0 0 5.348 4.134 0 11.682a562.82 562.82 0 0 0-13.046 28.634s-97.356-124.018-209.996-215.61c0 0-43.69-32.805-81.655 1.897-37.546 34.664-216.14 195.243-244.508 215.609-28.369 20.328-75.32 41.832-141.805-16.612-51.959-45.587-187.885-171.88-241.399-251.41 0 0-4.816-4.552-0.948-13.085 5.538-10.164 13.426-28.255 13.426-28.255z" fill="#80C400" p-id="7599" data-darkreader-inline-fill="" style="--darkreader-inline-fill: #669d00;"/></svg>